<svg width="24" height="24" viewBox="0 0 24 24" fill="none" xmlns="http://www.w3.org/2000/svg">
<g clip-path="url(#clip0_678_116)">
<path fill-rule="evenodd" clip-rule="evenodd" d="M12.0179 4.72044C6.85151 4.72044 2.67064 8.49701 2.67064 13.1471C2.6713 14.6524 3.11797 16.13 3.96412 17.4261C4.81028 18.7222 6.02499 19.7894 7.48178 20.5166C8.0711 20.813 8.69425 21.0493 9.35123 21.2257C9.5194 21.2708 9.67611 21.3454 9.81242 21.4452C9.94872 21.5451 10.062 21.6682 10.1457 21.8077C10.2294 21.9471 10.2819 22.1001 10.3002 22.2579C10.3186 22.4157 10.3024 22.5753 10.2526 22.7274C10.2028 22.8796 10.1203 23.0213 10.01 23.1447C9.8996 23.268 9.76347 23.3704 9.60934 23.4462C9.45522 23.5219 9.28611 23.5694 9.11169 23.586C8.93726 23.6026 8.76094 23.5879 8.59277 23.5429C7.75694 23.3187 6.95056 23.0128 6.18786 22.6308C4.31383 21.6945 2.75139 20.321 1.66313 18.6531C0.574868 16.9852 0.000570058 15.0839 0 13.1471C0 7.1548 5.384 2.30542 12.0179 2.30542C13.6737 2.30542 15.256 2.60745 16.6941 3.15714C17.0205 3.28162 17.2788 3.51829 17.4123 3.8151C17.5458 4.1119 17.5435 4.44451 17.4059 4.73977C17.2683 5.03503 17.0067 5.26875 16.6786 5.38951C16.3506 5.51027 15.9829 5.50818 15.6566 5.3837C14.5049 4.94476 13.2676 4.71923 12.0179 4.72044ZM11.2167 22.8567C11.1977 22.537 11.3199 22.2235 11.5562 21.9852C11.7926 21.7469 12.1238 21.6032 12.4772 21.5857C13.7021 21.527 14.9022 21.2507 16.0091 20.7727C16.3273 20.644 16.6885 20.633 17.0155 20.742C17.3425 20.851 17.6095 21.0714 17.7594 21.356C17.9093 21.6407 17.9303 21.9671 17.8178 22.2655C17.7054 22.564 17.4684 22.8108 17.1575 22.9533C15.7358 23.5673 14.1945 23.9224 12.6214 23.9983C12.2678 24.0155 11.9212 23.9048 11.6577 23.6907C11.3943 23.4766 11.2356 23.1766 11.2167 22.8567ZM21.0873 7.90625C21.4077 7.77005 21.7747 7.7545 22.1077 7.86301C22.4407 7.97152 22.7125 8.19521 22.8633 8.48493C23.5355 9.77361 23.9211 11.1693 23.9983 12.5925C24.016 12.9126 23.8925 13.226 23.6548 13.4636C23.4172 13.7013 23.0849 13.8438 22.7311 13.8598C22.3773 13.8759 22.031 13.7641 21.7683 13.5491C21.5056 13.334 21.3481 13.0334 21.3304 12.7133C21.2714 11.605 20.972 10.518 20.4491 9.51425C20.3743 9.37075 20.3314 9.21532 20.323 9.05685C20.3146 8.89838 20.3408 8.73996 20.4001 8.59064C20.4594 8.44133 20.5506 8.30403 20.6685 8.1866C20.7864 8.06918 20.9287 7.97391 21.0873 7.90625ZM19.0256 20.5093C18.7625 20.2949 18.6043 19.9948 18.5858 19.6749C18.5673 19.355 18.6899 19.0415 18.9268 18.8035C19.7467 17.9775 20.3816 17.0153 20.7962 15.9704C20.855 15.8206 20.9458 15.6828 21.0635 15.5648C21.1812 15.4468 21.3235 15.3509 21.4822 15.2828C21.6409 15.2146 21.8129 15.1755 21.9884 15.1676C22.1639 15.1597 22.3394 15.1832 22.5048 15.2367C22.6702 15.2903 22.8223 15.3729 22.9524 15.4797C23.0824 15.5866 23.1879 15.7156 23.2628 15.8594C23.3377 16.0032 23.3804 16.159 23.3886 16.3177C23.3968 16.4765 23.3703 16.6352 23.3106 16.7847C22.7787 18.1257 21.9637 19.3603 20.9111 20.4199C20.6741 20.6579 20.3424 20.801 19.9888 20.8178C19.6352 20.8346 19.2888 20.7236 19.0256 20.5093Z" fill="#A259FF"/>
<path fill-rule="evenodd" clip-rule="evenodd" d="M14.4301 0.10899C14.5647 0.0482191 14.7112 0.0120438 14.8612 0.00253244C15.0112 -0.00697889 15.1618 0.0103604 15.3045 0.0535588C15.4471 0.0967572 15.5789 0.164967 15.6924 0.254289C15.8058 0.34361 15.8987 0.45229 15.9657 0.574114L17.7444 3.81549C18.1009 4.46425 17.8058 5.25315 17.086 5.57451L13.4927 7.18009C13.3574 7.2462 13.2087 7.28694 13.0555 7.29989C12.9024 7.31284 12.7479 7.29773 12.6014 7.25545C12.4549 7.21318 12.3193 7.14461 12.2027 7.05385C12.0861 6.96309 11.9909 6.852 11.9228 6.72721C11.8548 6.60243 11.8152 6.4665 11.8065 6.32757C11.7978 6.18864 11.8202 6.04955 11.8722 5.91861C11.9243 5.78766 12.005 5.66756 12.1095 5.56547C12.214 5.46338 12.3402 5.3814 12.4805 5.32443L15.3167 4.0559L13.9107 1.49711C13.8438 1.37521 13.8042 1.24258 13.7941 1.10681C13.784 0.971046 13.8035 0.834807 13.8517 0.705885C13.8998 0.576963 13.9755 0.457887 14.0745 0.355466C14.1736 0.253046 14.2953 0.169291 14.4301 0.10899Z" fill="#A259FF"/>
</g>
<defs>
<clipPath id="clip0_678_116">
<rect width="24" height="24" fill="white" transform="matrix(-1 0 0 -1 24 24)"/>
</clipPath>
</defs>
</svg>
