<svg width="14" height="24" viewBox="0 0 14 24" fill="none" xmlns="http://www.w3.org/2000/svg">
<path d="M8.28003 17.8303C8.13768 18.3616 7.82654 18.7655 7.34661 19.042C6.86669 19.3185 6.36133 19.386 5.83054 19.2445C5.29975 19.103 4.89553 18.7918 4.61787 18.3108C4.34022 17.8299 4.27303 17.3247 4.41633 16.795C4.55962 16.2654 4.87052 15.8611 5.34904 15.5821C5.82755 15.3031 6.33314 15.236 6.86582 15.3808C7.39849 15.5256 7.80248 15.8364 8.07778 16.3133C8.35308 16.7901 8.4205 17.2958 8.28003 17.8303ZM10.7481 0.891925L13.9301 6.40328L11.9636 7.9469L12.8948 10.267L10.8959 11.9313L10.5918 13.0663C11.3231 13.8144 11.8369 14.6982 12.1331 15.7176C12.4294 16.737 12.4329 17.7863 12.1437 18.8656C11.7124 20.4755 10.7823 21.6929 9.35338 22.5178C7.92451 23.3428 6.40514 23.5396 4.79527 23.1082C3.18539 22.6769 1.96797 21.7467 1.14301 20.3179C0.318056 18.889 0.12126 17.3696 0.552625 15.7597C0.841639 14.6811 1.36937 13.7741 2.13581 13.0388C2.90225 12.3034 3.78906 11.795 4.79626 11.5134L7.07387 3.01325L10.7481 0.891925ZM10.2119 18.3479C10.4534 17.4464 10.3923 16.5801 10.0283 15.7489C9.66438 14.9177 9.09395 14.2776 8.31703 13.8285L9.12584 10.81L10.4912 9.6747L9.54874 7.29985L11.3363 5.94121L10.0105 3.64481L8.78572 4.35192L6.38518 13.3109C5.48765 13.312 4.67359 13.5811 3.94299 14.1183C3.21238 14.6555 2.72621 15.3752 2.48448 16.2774C2.19978 17.3399 2.33437 18.3509 2.88828 19.3102C3.44218 20.2696 4.25039 20.8917 5.3129 21.1764C6.37542 21.4611 7.38637 21.3265 8.34576 20.7726C9.30514 20.2187 9.92718 19.4105 10.2119 18.3479Z" fill="#A259FF"/>
</svg>
