<svg width="20" height="14" viewBox="0 0 20 14" fill="none" xmlns="http://www.w3.org/2000/svg">
<path d="M9.3 1.07502C9.53333 0.94169 9.74166 0.962356 9.925 1.13702C10.1083 1.31169 10.1333 1.51602 10 1.75002L7.575 6.00002H19C19.2833 6.00002 19.5207 6.09602 19.712 6.28802C19.9033 6.48002 19.9993 6.71736 20 7.00002C20.0007 7.28269 19.9047 7.52002 19.712 7.71202C19.5193 7.90402 19.282 8.00002 19 8.00002H7.575L10 12.25C10.1333 12.4834 10.1083 12.6874 9.925 12.862C9.74166 13.0367 9.53333 13.0577 9.3 12.925L1.325 7.85002C1.00833 7.65002 0.849997 7.36669 0.849997 7.00002C0.849997 6.63336 1.00833 6.35002 1.325 6.15002L9.3 1.07502Z" fill="#A259FF"/>
</svg>
