<svg width="20" height="14" viewBox="0 0 20 14" fill="none" xmlns="http://www.w3.org/2000/svg">
<path d="M10.7 12.9242C10.4667 13.0575 10.2583 13.0369 10.075 12.8622C9.89167 12.6875 9.86667 12.4832 10 12.2492L12.425 7.99918H1C0.71667 7.99918 0.479337 7.90318 0.288004 7.71118C0.0966702 7.51918 0.000670115 7.28185 3.44827e-06 6.99918C-0.000663218 6.71652 0.0953369 6.47918 0.288004 6.28718C0.48067 6.09518 0.718003 5.99918 1 5.99918H12.425L10 1.74918C9.86667 1.51585 9.89167 1.31185 10.075 1.13718C10.2583 0.962517 10.4667 0.941517 10.7 1.07418L18.675 6.14918C18.9917 6.34918 19.15 6.63252 19.15 6.99918C19.15 7.36585 18.9917 7.64918 18.675 7.84918L10.7 12.9242Z" fill="black"/>
</svg>
