<svg width="150" height="150" viewBox="0 0 150 150" fill="none" xmlns="http://www.w3.org/2000/svg">
<path d="M75 150C64.625 150 54.875 148.03 45.75 144.09C36.625 140.15 28.6875 134.807 21.9375 128.062C15.1875 121.317 9.84501 113.38 5.91001 104.25C1.97501 95.12 0.00500949 85.37 9.49367e-06 75C-0.00499051 64.63 1.96501 54.88 5.91001 45.75C9.85501 36.62 15.1975 28.6825 21.9375 21.9375C28.6775 15.1925 36.615 9.85 45.75 5.91C54.885 1.97 64.635 0 75 0C83.125 0 90.8125 1.1875 98.0625 3.5625C105.312 5.9375 112 9.25 118.125 13.5L107.25 24.5625C102.5 21.5625 97.4375 19.22 92.0625 17.535C86.6875 15.85 81 15.005 75 15C58.375 15 44.2175 20.845 32.5275 32.535C20.8375 44.225 14.995 58.38 15 75C15.005 91.62 20.85 105.777 32.535 117.472C44.22 129.167 58.375 135.01 75 135C91.625 134.99 105.783 129.147 117.473 117.472C129.163 105.797 135.005 91.64 135 75C135 72.75 134.875 70.5 134.625 68.25C134.375 66 134 63.8125 133.5 61.6875L145.688 49.5C147.062 53.5 148.125 57.625 148.875 61.875C149.625 66.125 150 70.5 150 75C150 85.375 148.03 95.125 144.09 104.25C140.15 113.375 134.808 121.312 128.063 128.062C121.318 134.812 113.38 140.157 104.25 144.097C95.12 148.037 85.37 150.005 75 150ZM64.5 109.5L32.625 77.625L43.125 67.125L64.5 88.5L139.5 13.3125L150 23.8125L64.5 109.5Z" fill="url(#paint0_linear_263_196)"/>
<defs>
<linearGradient id="paint0_linear_263_196" x1="150" y1="75" x2="0" y2="75" gradientUnits="userSpaceOnUse">
<stop offset="0.163453" stop-color="#0011FF"/>
<stop offset="0.812508" stop-color="#A259FF"/>
</linearGradient>
</defs>
</svg>
