<svg width="21" height="22" viewBox="0 0 21 22" fill="none" xmlns="http://www.w3.org/2000/svg">
<path d="M10.6847 21.6108C9.05966 21.6108 7.59943 21.3608 6.30398 20.8608C5.00852 20.3608 3.90341 19.6392 2.98864 18.696C2.07955 17.7585 1.38068 16.6278 0.892045 15.304C0.409091 13.9801 0.167614 12.5 0.167614 10.8636C0.167614 9.26136 0.411932 7.80682 0.900568 6.5C1.39489 5.19318 2.09659 4.07102 3.00568 3.13352C3.92045 2.19602 5.01136 1.47443 6.27841 0.96875C7.55114 0.457386 8.96591 0.201704 10.5227 0.201704C12.0455 0.201704 13.4091 0.46875 14.6136 1.00284C15.8182 1.53125 16.8438 2.25284 17.6903 3.16761C18.5369 4.08239 19.1818 5.125 19.625 6.29545C20.0739 7.46023 20.2983 8.67898 20.2983 9.9517C20.2983 10.7585 20.2358 11.554 20.1108 12.3381C19.9915 13.1222 19.7841 13.8324 19.4886 14.4688C19.1932 15.1051 18.7841 15.6136 18.2614 15.9943C17.7386 16.3693 17.0767 16.5568 16.2756 16.5568C15.8551 16.5568 15.4403 16.4886 15.0312 16.3523C14.6278 16.2102 14.2812 15.9801 13.9915 15.6619C13.7074 15.3381 13.5426 14.9062 13.4972 14.3665H13.4119C13.2301 14.7756 12.9744 15.1506 12.6449 15.4915C12.3153 15.8267 11.9091 16.0937 11.4261 16.2926C10.9489 16.4915 10.3949 16.5824 9.7642 16.5653C9.0483 16.5483 8.40341 16.3892 7.82955 16.0881C7.26136 15.7869 6.77557 15.375 6.37216 14.8523C5.97443 14.3295 5.67045 13.7244 5.46023 13.0369C5.25 12.3437 5.14489 11.5966 5.14489 10.7955C5.14489 10.0227 5.26136 9.30966 5.49432 8.65625C5.73295 8.00284 6.05966 7.43182 6.47443 6.94318C6.89489 6.45455 7.38636 6.06534 7.94886 5.77557C8.51136 5.4858 9.11648 5.31818 9.7642 5.27273C10.3438 5.23295 10.8778 5.28977 11.3665 5.44318C11.8551 5.59091 12.2699 5.80682 12.6108 6.09091C12.9517 6.375 13.196 6.69602 13.3438 7.05398H13.429V5.51136H14.8182V13.4119C14.8182 14.0085 14.9347 14.4744 15.1676 14.8097C15.4063 15.1392 15.7813 15.304 16.2926 15.304C16.9119 15.304 17.4148 15.1023 17.8011 14.6989C18.1932 14.2898 18.4801 13.6875 18.6619 12.892C18.8438 12.0909 18.9347 11.1051 18.9347 9.93466C18.9347 9.0483 18.8097 8.19034 18.5597 7.3608C18.3153 6.52557 17.9574 5.75284 17.4858 5.04261C17.0142 4.3267 16.4347 3.7017 15.7472 3.16761C15.0597 2.62784 14.2727 2.20739 13.3864 1.90625C12.5057 1.60511 11.5284 1.45454 10.4545 1.45454C9.125 1.45454 7.91761 1.67898 6.83239 2.12784C5.74716 2.5767 4.8125 3.21875 4.02841 4.05398C3.25 4.8892 2.65057 5.88636 2.23011 7.04545C1.80966 8.19886 1.59943 9.4858 1.59943 10.9062C1.59943 12.3438 1.80966 13.642 2.23011 14.8011C2.65057 15.9602 3.25568 16.9517 4.04545 17.7756C4.84091 18.5994 5.80114 19.233 6.92614 19.6761C8.05114 20.1193 9.31818 20.3409 10.7273 20.3409C11.3523 20.3409 11.9659 20.2784 12.5682 20.1534C13.1761 20.0341 13.7273 19.8864 14.2216 19.7102C14.7216 19.5341 15.125 19.3608 15.4318 19.1903L15.8665 20.3835C15.446 20.6108 14.946 20.8182 14.3665 21.0057C13.7926 21.1932 13.1847 21.3409 12.5426 21.4489C11.9063 21.5568 11.2869 21.6108 10.6847 21.6108ZM9.94318 15.2273C10.7159 15.2273 11.3665 15.0483 11.8949 14.6903C12.4233 14.3324 12.821 13.8182 13.0881 13.1477C13.3608 12.4773 13.4972 11.6705 13.4972 10.7273C13.4972 9.77841 13.3523 8.99716 13.0625 8.38352C12.7784 7.76989 12.3722 7.31534 11.8438 7.01989C11.321 6.71875 10.7017 6.56818 9.9858 6.56818C9.29261 6.56818 8.68466 6.75852 8.16193 7.1392C7.64489 7.5142 7.23864 8.01705 6.94318 8.64773C6.65341 9.27841 6.50852 9.97159 6.50852 10.7273C6.50852 11.5284 6.63636 12.2699 6.89205 12.9517C7.15341 13.6335 7.53693 14.1847 8.04261 14.6051C8.55398 15.0199 9.1875 15.2273 9.94318 15.2273Z" fill="black"/>
</svg>
