<svg width="22" height="20" viewBox="0 0 22 20" fill="none" xmlns="http://www.w3.org/2000/svg">
<path d="M9.65 14.7252H11.65V11.7252H14.65V9.72519H11.65V6.7252H9.65V9.72519H6.65V11.7252H9.65V14.7252ZM10.65 19.7252C9.4 19.7252 8.22933 19.4879 7.138 19.0132C6.04667 18.5385 5.09667 17.8969 4.288 17.0882C3.47933 16.2795 2.83767 15.3295 2.363 14.2382C1.88833 13.1469 1.65067 11.9759 1.65 10.7252C1.64933 9.47453 1.887 8.30386 2.363 7.2132C2.839 6.12253 3.48033 5.17253 4.287 4.3632C5.09367 3.55386 6.04367 2.9122 7.137 2.4382C8.23033 1.9642 9.40133 1.72653 10.65 1.7252C11.8987 1.72386 13.0697 1.96153 14.163 2.4382C15.2563 2.91486 16.2063 3.55653 17.013 4.3632C17.8197 5.16986 18.4613 6.11986 18.938 7.2132C19.4147 8.30653 19.652 9.47719 19.65 10.7252C19.648 11.9732 19.4107 13.1442 18.938 14.2382C18.4653 15.3322 17.8237 16.2822 17.013 17.0882C16.2023 17.8942 15.2523 18.5359 14.163 19.0132C13.0737 19.4905 11.9027 19.7279 10.65 19.7252ZM4.25 0.0751953L5.65 1.4752L1.4 5.7252L0 4.3252L4.25 0.0751953ZM17.05 0.0751953L21.3 4.3252L19.9 5.7252L15.65 1.4752L17.05 0.0751953Z" fill="url(#paint0_linear_965_2693)"/>
<defs>
<linearGradient id="paint0_linear_965_2693" x1="21.3" y1="9.90021" x2="0" y2="9.90021" gradientUnits="userSpaceOnUse">
<stop offset="0.163453" stop-color="#0011FF"/>
<stop offset="0.812508" stop-color="#A259FF"/>
</linearGradient>
</defs>
</svg>
