<svg width="22" height="22" viewBox="0 0 22 22" fill="none" xmlns="http://www.w3.org/2000/svg">
<path d="M11 22C10.1667 22 9.45833 21.7083 8.875 21.125C8.29167 20.5417 8 19.8333 8 19C8 18.7667 8.021 18.5457 8.063 18.337C8.105 18.1283 8.17567 17.9243 8.275 17.725L4.275 13.7C4.075 13.7833 3.86667 13.8543 3.65 13.913C3.43333 13.9717 3.20833 14.0007 2.975 14C2.14167 14 1.43767 13.7083 0.863001 13.125C0.288334 12.5417 0.000667823 11.8333 1.15607e-06 11C-0.000665511 10.1667 0.287001 9.45833 0.863001 8.875C1.439 8.29167 2.143 8 2.975 8C3.625 8 4.20833 8.18767 4.725 8.563C5.24167 8.93833 5.6 9.41733 5.8 10H8.175C8.325 9.56667 8.55833 9.196 8.875 8.888C9.19167 8.58 9.56667 8.35067 10 8.2V5.825C9.41667 5.625 8.93767 5.26667 8.563 4.75C8.18833 4.23333 8.00067 3.65 8 3C8 2.16667 8.29167 1.45833 8.875 0.875C9.45833 0.291667 10.1667 0 11 0C11.8333 0 12.5417 0.291667 13.125 0.875C13.7083 1.45833 14 2.16667 14 3C14 3.23333 13.975 3.45833 13.925 3.675C13.875 3.89167 13.8 4.1 13.7 4.3L17.7 8.3C17.9 8.2 18.1083 8.125 18.325 8.075C18.5417 8.025 18.7667 8 19 8C19.8333 8 20.5417 8.29167 21.125 8.875C21.7083 9.45833 22 10.1667 22 11C22 11.8333 21.7083 12.5417 21.125 13.125C20.5417 13.7083 19.8333 14 19 14C18.35 14 17.7667 13.8127 17.25 13.438C16.7333 13.0633 16.375 12.584 16.175 12H13.8C13.65 12.4333 13.421 12.8083 13.113 13.125C12.805 13.4417 12.434 13.675 12 13.825V16.175C12.5833 16.375 13.0627 16.7333 13.438 17.25C13.8133 17.7667 14.0007 18.35 14 19C14 19.8333 13.7083 20.5417 13.125 21.125C12.5417 21.7083 11.8333 22 11 22ZM10 16.175V13.825C9.78333 13.7417 9.58333 13.6417 9.4 13.525C9.21667 13.4083 9.04567 13.2707 8.887 13.112C8.72833 12.9533 8.591 12.7827 8.475 12.6C8.359 12.4173 8.259 12.2173 8.175 12H5.8C5.8 12.0167 5.79567 12.0377 5.787 12.063L5.762 12.138C5.754 12.1627 5.74567 12.1833 5.737 12.2L5.7 12.275L6.425 13C6.825 13.4 7.25 13.8293 7.7 14.288C8.15 14.7467 8.575 15.1757 8.975 15.575L9.7 16.3C9.73333 16.2833 9.76267 16.2707 9.788 16.262C9.81333 16.2533 9.838 16.241 9.862 16.225C9.886 16.209 9.911 16.1963 9.937 16.187C9.963 16.1777 9.984 16.1737 10 16.175ZM13.8 10H16.175C16.175 9.96667 16.179 9.93733 16.187 9.912C16.195 9.88667 16.2077 9.86167 16.225 9.837C16.2423 9.81233 16.2547 9.78733 16.262 9.762C16.2693 9.73667 16.282 9.716 16.3 9.7L15.575 8.975L14.3 7.7L13.025 6.425L12.3 5.7C12.2833 5.71667 12.2623 5.729 12.237 5.737C12.2117 5.745 12.1867 5.75767 12.162 5.775C12.1373 5.79233 12.1123 5.80467 12.087 5.812C12.0617 5.81933 12.0327 5.82367 12 5.825V8.2C12.2 8.26667 12.396 8.36233 12.588 8.487C12.78 8.61167 12.9507 8.74933 13.1 8.9C13.2493 9.05067 13.387 9.22167 13.513 9.413C13.639 9.60433 13.7347 9.8 13.8 10ZM19 12C19.2833 12 19.521 11.904 19.713 11.712C19.905 11.52 20.0007 11.2827 20 11C19.9993 10.7173 19.9033 10.48 19.712 10.288C19.5207 10.096 19.2833 10 19 10C18.7167 10 18.4793 10.096 18.288 10.288C18.0967 10.48 18.0007 10.7173 18 11C17.9993 11.2827 18.0953 11.5203 18.288 11.713C18.4807 11.9057 18.718 12.0013 19 12ZM11 12C11.2833 12 11.521 11.904 11.713 11.712C11.905 11.52 12.0007 11.2827 12 11C11.9993 10.7173 11.9033 10.48 11.712 10.288C11.5207 10.096 11.2833 10 11 10C10.7167 10 10.4793 10.096 10.288 10.288C10.0967 10.48 10.0007 10.7173 10 11C9.99933 11.2827 10.0953 11.5203 10.288 11.713C10.4807 11.9057 10.718 12.0013 11 12ZM11 20C11.2833 20 11.521 19.904 11.713 19.712C11.905 19.52 12.0007 19.2827 12 19C11.9993 18.7173 11.9033 18.48 11.712 18.288C11.5207 18.096 11.2833 18 11 18C10.7167 18 10.4793 18.096 10.288 18.288C10.0967 18.48 10.0007 18.7173 10 19C9.99933 19.2827 10.0953 19.5203 10.288 19.713C10.4807 19.9057 10.718 20.0013 11 20ZM3 12C3.28333 12 3.521 11.904 3.713 11.712C3.905 11.52 4.00067 11.2827 4 11C3.99933 10.7173 3.90333 10.48 3.712 10.288C3.52067 10.096 3.28333 10 3 10C2.71667 10 2.47933 10.096 2.288 10.288C2.09667 10.48 2.00067 10.7173 2 11C1.99933 11.2827 2.09533 11.5203 2.288 11.713C2.48067 11.9057 2.718 12.0013 3 12ZM11 4C11.2833 4 11.521 3.904 11.713 3.712C11.905 3.52 12.0007 3.28267 12 3C11.9993 2.71733 11.9033 2.48 11.712 2.288C11.5207 2.096 11.2833 2 11 2C10.7167 2 10.4793 2.096 10.288 2.288C10.0967 2.48 10.0007 2.71733 10 3C9.99933 3.28267 10.0953 3.52033 10.288 3.713C10.4807 3.90567 10.718 4.00133 11 4Z" fill="#257808"/>
</svg>
