<svg width="20" height="18" viewBox="0 0 20 18" fill="none" xmlns="http://www.w3.org/2000/svg">
<path d="M9.79159 17.712C9.54693 17.712 9.33193 17.6287 9.14659 17.462C8.96126 17.2967 8.86859 17.0787 8.86859 16.808C8.86859 16.6787 8.89693 16.5353 8.95359 16.378C9.01026 16.2207 9.09493 16.0857 9.20759 15.973L12.8906 12.291L12.3386 11.739L8.66159 15.421C8.54826 15.5343 8.42059 15.619 8.27859 15.675C8.13659 15.7317 7.99226 15.76 7.84559 15.76C7.58826 15.76 7.36993 15.6703 7.19059 15.491C7.01126 15.3117 6.92193 15.0937 6.92259 14.837C6.92259 14.683 6.95393 14.5327 7.01659 14.386C7.07993 14.2393 7.15959 14.1177 7.25559 14.021L10.9386 10.339L10.3916 9.792L6.70959 13.47C6.60959 13.57 6.48526 13.6517 6.33659 13.715C6.18793 13.7783 6.03859 13.8097 5.88859 13.809C5.63459 13.809 5.41726 13.7187 5.23659 13.538C5.05593 13.3573 4.96559 13.14 4.96559 12.886C4.96559 12.7393 4.99359 12.595 5.04959 12.453C5.10559 12.311 5.19026 12.1833 5.30359 12.07L8.75559 8.618L8.20359 8.072L4.75759 11.524C4.66159 11.62 4.53926 11.6997 4.39059 11.763C4.24126 11.8257 4.08993 11.857 3.93659 11.857C3.66593 11.857 3.44426 11.7707 3.27159 11.598C3.09959 11.426 3.01359 11.2047 3.01359 10.934C3.01359 10.7873 3.04159 10.643 3.09759 10.501C3.15426 10.359 3.23893 10.2313 3.35159 10.118L8.29159 5.178L10.4456 7.338C10.6289 7.52134 10.8359 7.651 11.0666 7.727C11.2979 7.80367 11.5319 7.842 11.7686 7.842C12.2506 7.842 12.6533 7.68334 12.9766 7.366C13.2999 7.04867 13.4616 6.643 13.4616 6.149C13.4616 5.91567 13.4166 5.68034 13.3266 5.443C13.2366 5.20634 13.0963 4.99234 12.9056 4.801L10.2576 2.153L11.2376 1.173C11.4576 0.957004 11.7233 0.788004 12.0346 0.666004C12.3459 0.543337 12.6573 0.482004 12.9686 0.482004C13.2999 0.482004 13.6233 0.543337 13.9386 0.666004C14.2539 0.788004 14.5229 0.960671 14.7456 1.184L19.0296 5.47C19.2396 5.68067 19.4059 5.93734 19.5286 6.24C19.6513 6.542 19.7126 6.877 19.7126 7.245C19.7126 7.57834 19.6503 7.89334 19.5256 8.19C19.4016 8.48667 19.2363 8.73834 19.0296 8.945L10.6086 17.372C10.5006 17.48 10.3739 17.5633 10.2286 17.622C10.0846 17.6813 9.93926 17.711 9.79259 17.711M2.19859 10.172L1.16359 9.137C0.88026 8.85767 0.666927 8.522 0.523594 8.13C0.38026 7.73734 0.308594 7.354 0.308594 6.98C0.308594 6.58534 0.372594 6.227 0.500594 5.905C0.628594 5.583 0.791927 5.32267 0.990594 5.124L4.92759 1.182C5.14293 0.966671 5.38293 0.79567 5.64759 0.669004C5.91093 0.542337 6.19859 0.479004 6.51059 0.479004C6.84526 0.479004 7.15193 0.53867 7.43059 0.658004C7.71059 0.77667 7.96593 0.951337 8.19659 1.182L12.3606 5.345C12.4606 5.445 12.5419 5.56934 12.6046 5.718C12.6673 5.86667 12.6986 6.00767 12.6986 6.141C12.6986 6.40767 12.6116 6.63167 12.4376 6.813C12.2629 6.993 12.0423 7.083 11.7756 7.083C11.6256 7.083 11.4813 7.056 11.3426 7.002C11.2046 6.94734 11.0773 6.86167 10.9606 6.745L8.28659 4.084L2.19859 10.172Z" fill="#1877F2"/>
</svg>
