<svg width="20" height="20" viewBox="0 0 20 20" fill="none" xmlns="http://www.w3.org/2000/svg">
<path d="M3 10C3.96286 9.27785 5.1539 8.92726 6.35445 9.01258C7.55499 9.0979 8.68448 9.61341 9.53553 10.4645C10.3866 11.3155 10.9021 12.445 10.9874 13.6456C11.0727 14.8461 10.7221 16.0371 10 17M3 10C2.37902 10.4657 1.875 11.0697 1.52786 11.7639C1.18073 12.4582 1 13.2238 1 14C0.99968 14.5028 1.0752 15.0027 1.224 15.483C1.496 16.363 1.3 17.343 1.125 18.267C1.10948 18.346 1.1146 18.4276 1.13985 18.5041C1.1651 18.5805 1.20963 18.6491 1.26915 18.7033C1.32866 18.7575 1.40115 18.7954 1.4796 18.8134C1.55805 18.8314 1.63982 18.8288 1.717 18.806C2.565 18.574 3.408 18.376 4.274 18.694C4.82683 18.8968 5.41114 19.0004 6 19C6.77636 19.0008 7.5422 18.8204 8.2366 18.4732C8.931 18.126 9.53481 17.6216 10 17M3 10C3 5.315 5.875 1 11 1C12.283 0.999776 13.5471 1.30811 14.6859 1.899C15.8247 2.48988 16.8047 3.34599 17.5432 4.39508C18.2817 5.44418 18.757 6.6555 18.9291 7.92686C19.1012 9.19822 18.965 10.4923 18.532 11.7C18.056 13.026 18.569 14.802 18.869 16.268C18.8865 16.3461 18.8829 16.4274 18.8586 16.5036C18.8343 16.5798 18.7902 16.6482 18.7307 16.7017C18.6713 16.7552 18.5987 16.792 18.5204 16.8082C18.442 16.8244 18.3608 16.8195 18.285 16.794C16.973 16.384 15.433 15.808 14.2 16.328C12.866 16.89 11.464 17 10 17" stroke="black" stroke-linecap="round" stroke-linejoin="round"/>
</svg>
