<svg width="31" height="30" viewBox="0 0 31 30" fill="none" xmlns="http://www.w3.org/2000/svg">
<path d="M25.833 3H22.833V1.5C22.833 1.10218 22.675 0.720644 22.3937 0.43934C22.1124 0.158035 21.7308 0 21.333 0C20.9352 0 20.5537 0.158035 20.2723 0.43934C19.991 0.720644 19.833 1.10218 19.833 1.5V3H10.833V1.5C10.833 1.10218 10.675 0.720644 10.3937 0.43934C10.1124 0.158035 9.73083 0 9.33301 0C8.93518 0 8.55365 0.158035 8.27235 0.43934C7.99104 0.720644 7.83301 1.10218 7.83301 1.5V3H4.83301C3.63953 3 2.49494 3.47411 1.65103 4.31802C0.807114 5.16193 0.333008 6.30653 0.333008 7.5V25.5C0.333008 26.6935 0.807114 27.8381 1.65103 28.682C2.49494 29.5259 3.63953 30 4.83301 30H25.833C27.0265 30 28.1711 29.5259 29.015 28.682C29.8589 27.8381 30.333 26.6935 30.333 25.5V7.5C30.333 6.30653 29.8589 5.16193 29.015 4.31802C28.1711 3.47411 27.0265 3 25.833 3ZM27.333 25.5C27.333 25.8978 27.175 26.2794 26.8937 26.5607C26.6124 26.842 26.2308 27 25.833 27H4.83301C4.43518 27 4.05365 26.842 3.77235 26.5607C3.49104 26.2794 3.33301 25.8978 3.33301 25.5V15H27.333V25.5ZM27.333 12H3.33301V7.5C3.33301 7.10218 3.49104 6.72064 3.77235 6.43934C4.05365 6.15804 4.43518 6 4.83301 6H7.83301V7.5C7.83301 7.89782 7.99104 8.27936 8.27235 8.56066C8.55365 8.84196 8.93518 9 9.33301 9C9.73083 9 10.1124 8.84196 10.3937 8.56066C10.675 8.27936 10.833 7.89782 10.833 7.5V6H19.833V7.5C19.833 7.89782 19.991 8.27936 20.2723 8.56066C20.5537 8.84196 20.9352 9 21.333 9C21.7308 9 22.1124 8.84196 22.3937 8.56066C22.675 8.27936 22.833 7.89782 22.833 7.5V6H25.833C26.2308 6 26.6124 6.15804 26.8937 6.43934C27.175 6.72064 27.333 7.10218 27.333 7.5V12Z" fill="#5D7285"/>
</svg>
