<svg width="31" height="30" viewBox="0 0 31 30" fill="none" xmlns="http://www.w3.org/2000/svg">
<g clip-path="url(#clip0_520_2209)">
<path d="M6.22738 5.8887C12.0717 1.74418 20.4192 2.08293 25.8228 6.69062C31.3194 11.3808 32.0703 19.0388 27.5496 24.5248C23.2911 29.6916 15.6106 31.3944 9.21624 28.7293L8.86699 28.5779L2.3107 29.9734L2.25074 29.9824L2.19828 29.9929H2.1713L2.13832 30.0004H2.08136L2.0319 30.0064L2.00042 30.0049L1.96595 30.0064L1.91648 30.0019H1.86402L1.83104 29.9959L1.79807 29.9929L1.74561 29.9824L1.69464 29.9749L1.67066 29.9689L1.63468 29.9614L1.56124 29.9374L1.52526 29.9299L1.50878 29.9224L1.4758 29.9119L1.40835 29.882L1.36338 29.864L1.34689 29.855L1.32591 29.846L1.27944 29.819L1.21199 29.783L1.18801 29.7665L1.13255 29.7276L1.07259 29.6871L1.06959 29.6811L1.0501 29.6676L0.985651 29.6077L0.948178 29.5777L0.939184 29.5672L0.855245 29.4743L0.835759 29.4533L0.819271 29.4323L0.760813 29.3483L0.739828 29.3199L0.732333 29.3049L0.669378 29.1955L0.658886 29.1775L0.65289 29.1655L0.642398 29.1475L0.621413 29.0905L0.591434 29.0276L0.585438 29.0036L0.579443 28.9886L0.553961 28.8972L0.543469 28.8702L0.540471 28.8477L0.532976 28.8192L0.525482 28.7698L0.51349 28.7068L0.510492 28.6603L0.505996 28.6453V28.6214L0.5 28.5404L0.501499 28.4865L0.502998 28.452L0.505996 28.3725L0.511991 28.3351V28.3066L0.523983 28.2541L0.531477 28.2032L0.538972 28.1732L0.544968 28.1432L0.571948 28.0533L0.576445 28.0338L2.30021 22.8625L2.26723 22.807C-1.04539 17.1906 0.455032 10.2296 5.88413 6.14052L6.22738 5.8887Z" fill="#5D7285"/>
</g>
<defs>
<clipPath id="clip0_520_2209">
<rect width="30" height="30" fill="white" transform="translate(0.5)"/>
</clipPath>
</defs>
</svg>
