<svg width="30" height="30" viewBox="0 0 30 30" fill="none" xmlns="http://www.w3.org/2000/svg">
<g clip-path="url(#clip0_520_2213)">
<path d="M0 29.1562V12.2812C0 11.6875 0.133125 11.125 0.399375 10.5937C0.665624 10.0625 1.0325 9.625 1.5 9.28125L12.75 0.84375C13.4062 0.34375 14.1562 0.09375 15 0.09375C15.8437 0.09375 16.5937 0.34375 17.25 0.84375L28.5 9.28125C28.9687 9.625 29.3362 10.0625 29.6025 10.5937C29.8687 11.125 30.0012 11.6875 30 12.2812V29.1562C30 30.1875 29.6325 31.0706 28.8975 31.8056C28.1625 32.5406 27.28 32.9075 26.25 32.9062H20.625C20.0937 32.9062 19.6487 32.7262 19.29 32.3662C18.9312 32.0062 18.7512 31.5612 18.75 31.0312V21.6562C18.75 21.125 18.57 20.68 18.21 20.3212C17.85 19.9625 17.405 19.7825 16.875 19.7812H13.125C12.5937 19.7812 12.1487 19.9612 11.79 20.3212C11.4312 20.6812 11.2512 21.1262 11.25 21.6562V31.0312C11.25 31.5625 11.07 32.0081 10.71 32.3681C10.35 32.7281 9.905 32.9075 9.375 32.9062H3.75C2.71875 32.9062 1.83625 32.5394 1.1025 31.8056C0.36875 31.0719 0.00125 30.1887 0 29.1562Z" fill="#A259FF"/>
</g>
<defs>
<clipPath id="clip0_520_2213">
<rect width="30" height="30" fill="white"/>
</clipPath>
</defs>
</svg>
