<svg width="24" height="24" viewBox="0 0 24 24" fill="none" xmlns="http://www.w3.org/2000/svg">
<path d="M17.5053 8.61L20.3653 11.4713L23.2266 8.61L20.3653 5.75L17.5053 8.61ZM13.7553 2.36L15.3653 3.97125L16.9766 2.36L15.3653 0.75L13.7553 2.36ZM0.750313 11.9062C0.750313 13.4796 1.04739 14.9558 1.64156 16.335C2.23573 17.7142 3.04865 18.9192 4.08031 19.95C5.11198 20.9808 6.3174 21.7938 7.69656 22.3888C9.07573 22.9838 10.552 23.2812 12.1253 23.2812C14.5586 23.2812 16.7524 22.5812 18.7066 21.1812C20.6607 19.7812 22.0232 17.9329 22.7941 15.6363C20.8441 15.7229 18.9686 15.4242 17.1678 14.74C15.367 14.0567 13.7753 13.0233 12.3928 11.64C11.0095 10.2567 9.97573 8.665 9.29156 6.865C8.6074 5.065 8.30865 3.18917 8.39531 1.2375C6.10031 2.00417 4.2524 3.36584 2.85156 5.3225C1.45073 7.27917 0.750315 9.47375 0.750313 11.9062Z" fill="#5D7285"/>
</svg>
