<svg width="24" height="24" viewBox="0 0 24 24" fill="none" xmlns="http://www.w3.org/2000/svg">
<path d="M2 10.0002C2 8.33353 2.371 6.80453 3.113 5.4132C3.855 4.02186 4.85067 2.86753 6.1 1.9502L7.275 3.5502C6.275 4.28353 5.47933 5.20853 4.888 6.3252C4.29667 7.44186 4.00067 8.66686 4 10.0002H2ZM20 10.0002C20 8.66686 19.704 7.44186 19.112 6.3252C18.52 5.20853 17.7247 4.28353 16.726 3.5502L17.901 1.9502C19.151 2.86686 20.147 4.0212 20.889 5.4132C21.631 6.8052 22.0013 8.3342 22 10.0002H20ZM4 19.0002V17.0002H6V10.0002C6 8.61686 6.41667 7.38786 7.25 6.3132C8.08333 5.23853 9.16667 4.53419 10.5 4.2002V3.5002C10.5 3.08353 10.646 2.72953 10.938 2.4382C11.23 2.14686 11.584 2.00086 12 2.0002C12.416 1.99953 12.7703 2.14553 13.063 2.4382C13.3557 2.73086 13.5013 3.08486 13.5 3.5002V4.2002C14.8333 4.53353 15.9167 5.23786 16.75 6.3132C17.5833 7.38853 18 8.61753 18 10.0002V17.0002H20V19.0002H4ZM12 22.0002C11.45 22.0002 10.9793 21.8045 10.588 21.4132C10.1967 21.0219 10.0007 20.5509 10 20.0002H14C14 20.5502 13.8043 21.0212 13.413 21.4132C13.0217 21.8052 12.5507 22.0009 12 22.0002ZM8 17.0002H16V10.0002C16 8.9002 15.6083 7.95853 14.825 7.1752C14.0417 6.39186 13.1 6.0002 12 6.0002C10.9 6.0002 9.95833 6.39186 9.175 7.1752C8.39167 7.95853 8 8.9002 8 10.0002V17.0002Z" fill="black"/>
</svg>
