<svg width="24" height="24" viewBox="0 0 24 24" fill="none" xmlns="http://www.w3.org/2000/svg">
<path fill-rule="evenodd" clip-rule="evenodd" d="M7 5.75C7 4.42392 7.52678 3.15215 8.46447 2.21447C9.40215 1.27678 10.6739 0.75 12 0.75C13.3261 0.75 14.5979 1.27678 15.5355 2.21447C16.4732 3.15215 17 4.42392 17 5.75C17 7.07608 16.4732 8.34785 15.5355 9.28553C14.5979 10.2232 13.3261 10.75 12 10.75C10.6739 10.75 9.40215 10.2232 8.46447 9.28553C7.52678 8.34785 7 7.07608 7 5.75ZM7 13.25C5.3424 13.25 3.75269 13.9085 2.58058 15.0806C1.40848 16.2527 0.75 17.8424 0.75 19.5C0.75 20.4946 1.14509 21.4484 1.84835 22.1517C2.55161 22.8549 3.50544 23.25 4.5 23.25H19.5C20.4946 23.25 21.4484 22.8549 22.1517 22.1517C22.8549 21.4484 23.25 20.4946 23.25 19.5C23.25 17.8424 22.5915 16.2527 21.4194 15.0806C20.2473 13.9085 18.6576 13.25 17 13.25H7Z" fill="#5D7285"/>
</svg>
