<svg width="31" height="30" viewBox="0 0 31 30" fill="none" xmlns="http://www.w3.org/2000/svg">
<path d="M11.7295 27.5L11.2295 23.5C10.9587 23.3958 10.7037 23.2708 10.4645 23.125C10.2253 22.9792 9.99074 22.8229 9.76074 22.6562L6.04199 24.2188L2.60449 18.2812L5.82324 15.8438C5.80241 15.6979 5.79199 15.5575 5.79199 15.4225V14.5788C5.79199 14.4429 5.80241 14.3021 5.82324 14.1562L2.60449 11.7188L6.04199 5.78125L9.76074 7.34375C9.98991 7.17708 10.2295 7.02083 10.4795 6.875C10.7295 6.72917 10.9795 6.60417 11.2295 6.5L11.7295 2.5H18.6045L19.1045 6.5C19.3753 6.60417 19.6307 6.72917 19.8707 6.875C20.1107 7.02083 20.3449 7.17708 20.5732 7.34375L24.292 5.78125L27.7295 11.7188L24.5107 14.1562C24.5316 14.3021 24.542 14.4429 24.542 14.5788V15.4212C24.542 15.5571 24.5212 15.6979 24.4795 15.8438L27.6982 18.2812L24.2607 24.2188L20.5732 22.6562C20.3441 22.8229 20.1045 22.9792 19.8545 23.125C19.6045 23.2708 19.3545 23.3958 19.1045 23.5L18.6045 27.5H11.7295ZM15.2295 19.375C16.4378 19.375 17.4691 18.9479 18.3232 18.0938C19.1774 17.2396 19.6045 16.2083 19.6045 15C19.6045 13.7917 19.1774 12.7604 18.3232 11.9062C17.4691 11.0521 16.4378 10.625 15.2295 10.625C14.0003 10.625 12.9637 11.0521 12.1195 11.9062C11.2753 12.7604 10.8537 13.7917 10.8545 15C10.8553 16.2083 11.2774 17.2396 12.1207 18.0938C12.9641 18.9479 14.0003 19.375 15.2295 19.375Z" fill="#5D7285"/>
</svg>
