<svg width="31" height="30" viewBox="0 0 31 30" fill="none" xmlns="http://www.w3.org/2000/svg">
<path d="M28.4997 30L17.9997 19.5C17.1663 20.1667 16.208 20.6944 15.1247 21.0833C14.0413 21.4722 12.8886 21.6667 11.6663 21.6667C8.63856 21.6667 6.07634 20.6178 3.97968 18.52C1.88301 16.4222 0.83412 13.86 0.833009 10.8333C0.831898 7.80667 1.88079 5.24444 3.97968 3.14667C6.07856 1.04889 8.64079 0 11.6663 0C14.6919 0 17.2547 1.04889 19.3547 3.14667C21.4547 5.24444 22.503 7.80667 22.4997 10.8333C22.4997 12.0556 22.3052 13.2083 21.9163 14.2917C21.5275 15.375 20.9997 16.3333 20.333 17.1667L30.833 27.6667L28.4997 30ZM11.6663 18.3333C13.7497 18.3333 15.5208 17.6044 16.9797 16.1467C18.4386 14.6889 19.1675 12.9178 19.1663 10.8333C19.1652 8.74889 18.4363 6.97833 16.9797 5.52167C15.523 4.065 13.7519 3.33556 11.6663 3.33333C9.58079 3.33111 7.81023 4.06056 6.35468 5.52167C4.89912 6.98278 4.16968 8.75333 4.16634 10.8333C4.16301 12.9133 4.89245 14.6844 6.35468 16.1467C7.8169 17.6089 9.58745 18.3378 11.6663 18.3333Z" fill="#5D7285"/>
</svg>
