<svg width="18" height="19" viewBox="0 0 18 19" fill="none" xmlns="http://www.w3.org/2000/svg">
<path d="M9 18.5C7.75 18.5 6.57933 18.2627 5.488 17.788C4.39667 17.3133 3.44667 16.6717 2.638 15.863C1.82933 15.0543 1.18767 14.1043 0.713001 13.013C0.238335 11.9217 0.000668065 10.7507 1.3986e-06 9.5C-0.000665268 8.24933 0.237001 7.07867 0.713001 5.988C1.189 4.89733 1.83033 3.94733 2.637 3.138C3.44367 2.32867 4.39367 1.687 5.487 1.213C6.58034 0.739 7.75133 0.501333 9 0.5C10.3667 0.5 11.6627 0.791667 12.888 1.375C14.1133 1.95833 15.1507 2.78333 16 3.85V1.5H18V7.5H12V5.5H14.75C14.0667 4.56667 13.225 3.83333 12.225 3.3C11.225 2.76667 10.15 2.5 9 2.5C7.05 2.5 5.396 3.17933 4.038 4.538C2.68 5.89667 2.00067 7.55067 2 9.5C1.99933 11.4493 2.67867 13.1037 4.038 14.463C5.39734 15.8223 7.05133 16.5013 9 16.5C10.75 16.5 12.2793 15.9333 13.588 14.8C14.8967 13.6667 15.6673 12.2333 15.9 10.5H17.95C17.7 12.7833 16.721 14.6877 15.013 16.213C13.305 17.7383 11.3007 18.5007 9 18.5ZM11.8 13.7L8 9.9V4.5H10V9.1L13.2 12.3L11.8 13.7Z" fill="black" fill-opacity="0.7"/>
</svg>
