<svg width="24" height="27" viewBox="0 0 24 27" fill="none" xmlns="http://www.w3.org/2000/svg">
<path d="M20 27C18.8889 27 17.9444 26.6063 17.1667 25.8188C16.3889 25.0312 16 24.075 16 22.95C16 22.815 16.0333 22.5 16.1 22.005L6.73333 16.47C6.37778 16.8075 5.96667 17.0721 5.5 17.2638C5.03333 17.4555 4.53333 17.5509 4 17.55C2.88889 17.55 1.94444 17.1562 1.16667 16.3687C0.388889 15.5813 0 14.625 0 13.5C0 12.375 0.388889 11.4187 1.16667 10.6313C1.94444 9.84375 2.88889 9.45 4 9.45C4.53333 9.45 5.03333 9.54585 5.5 9.73755C5.96667 9.92925 6.37778 10.1934 6.73333 10.53L16.1 4.995C16.0556 4.8375 16.028 4.68585 16.0173 4.54005C16.0067 4.39425 16.0009 4.2309 16 4.05C16 2.925 16.3889 1.96875 17.1667 1.18125C17.9444 0.39375 18.8889 0 20 0C21.1111 0 22.0556 0.39375 22.8333 1.18125C23.6111 1.96875 24 2.925 24 4.05C24 5.175 23.6111 6.13125 22.8333 6.91875C22.0556 7.70625 21.1111 8.1 20 8.1C19.4667 8.1 18.9667 8.00415 18.5 7.81245C18.0333 7.62075 17.6222 7.3566 17.2667 7.02L7.9 12.555C7.94445 12.7125 7.97244 12.8646 7.984 13.0113C7.99556 13.158 8.00089 13.3209 8 13.5C7.99911 13.6791 7.99378 13.8425 7.984 13.9901C7.97422 14.1377 7.94622 14.2893 7.9 14.445L17.2667 19.98C17.6222 19.6425 18.0333 19.3783 18.5 19.1875C18.9667 18.9967 19.4667 18.9009 20 18.9C21.1111 18.9 22.0556 19.2938 22.8333 20.0813C23.6111 20.8687 24 21.825 24 22.95C24 24.075 23.6111 25.0312 22.8333 25.8188C22.0556 26.6063 21.1111 27 20 27Z" fill="#257808"/>
</svg>
