<svg width="24" height="29" viewBox="0 0 24 29" fill="none" xmlns="http://www.w3.org/2000/svg">
<path d="M18 6.10526L17.34 6.94474C16.71 7.73842 15.87 8.08947 15.03 8.08947C13.5 8.08947 12 6.89895 12 5.03684V0C12 0 0 6.10526 0 16.7895C0 23.5358 5.37 29 12 29C18.63 29 24 23.5358 24 16.7895C24 12.2716 21.585 8.21158 18 6.10526ZM12 25.9474C10.35 25.9474 9 24.6195 9 22.9863C9 22.2079 9.3 21.4753 9.87 20.9105L12 18.7737L14.145 20.9105C14.7 21.4753 15 22.2079 15 22.9863C15 24.6195 13.65 25.9474 12 25.9474ZM17.94 23.6579C18 23.1084 18.27 20.7732 16.245 18.7432L12 14.5L7.755 18.7432C5.715 20.7884 6 23.1389 6.06 23.6579C5.09847 22.801 4.32803 21.7449 3.80029 20.5603C3.27254 19.3757 2.99969 18.0901 3 16.7895C3 11.9663 6.195 8.16579 9.045 5.72368C9.21888 7.2153 9.92392 8.59037 11.0268 9.58882C12.1296 10.5873 13.5538 11.1399 15.03 11.1421C16.2 11.1421 17.34 10.7911 18.3 10.1347C20.0293 11.9025 21.0001 14.2952 21 16.7895C21 19.5216 19.815 21.9789 17.94 23.6579Z" fill="#FF1111"/>
</svg>
